<svg width="28" height="28" viewBox="0 0 28 28" fill="none" xmlns="http://www.w3.org/2000/svg">
<path fill-rule="evenodd" clip-rule="evenodd" d="M14 28C21.732 28 28 21.732 28 14C28 6.26801 21.732 0 14 0C6.26801 0 0 6.26801 0 14C0 21.732 6.26801 28 14 28ZM22.084 7.77671C21.5409 7.27786 20.8221 6.99995 20.075 7H7.925L7.7594 7.00437C7.01347 7.0455 6.31201 7.36257 5.7989 7.89055C5.2858 8.41852 4.99995 9.11738 5 9.84375V18.1562L5.0045 18.3172C5.0468 19.0425 5.37293 19.7244 5.91599 20.2233C6.45905 20.7221 7.17788 21 7.925 21H20.075L20.2406 20.9956C20.9865 20.9545 21.688 20.6374 22.2011 20.1095C22.7142 19.5815 23 18.8826 23 18.1562V9.84375L22.9955 9.68275C22.9532 8.95754 22.6271 8.27557 22.084 7.77671ZM14.315 15.4551L21.65 11.7014V18.1562L21.6446 18.2814C21.6123 18.6645 21.4329 19.0218 21.1421 19.2823C20.8513 19.5428 20.4704 19.6875 20.075 19.6875H7.925L7.7954 19.6823C7.40147 19.6506 7.03417 19.4762 6.76641 19.1935C6.49865 18.9108 6.35001 18.5405 6.35 18.1562V11.7023L13.6859 15.456L13.7723 15.4928C13.8605 15.5234 13.9543 15.5359 14.0477 15.5295C14.1412 15.523 14.2322 15.4977 14.315 15.4551ZM7.925 8.3125H20.075L20.2037 8.31775C20.5978 8.34916 20.9653 8.52355 21.2333 8.80626C21.5012 9.08897 21.65 9.45932 21.65 9.84375V10.2183L14 14.133L6.35 10.2191V9.84375L6.3554 9.71775C6.38793 9.33476 6.56738 8.97766 6.85815 8.71735C7.14891 8.45702 7.52973 8.31251 7.925 8.3125Z" fill="#999999"/>
</svg>
