<svg width="28" height="28" viewBox="0 0 28 28" fill="none" xmlns="http://www.w3.org/2000/svg">
<path d="M14 0.559998C6.5772 0.559998 0.559998 6.5772 0.559998 14C0.559998 21.4228 6.5772 27.44 14 27.44C21.4228 27.44 27.44 21.4228 27.44 14C27.44 6.5772 21.4228 0.559998 14 0.559998ZM10.71 19.5706H7.9884V10.8122H10.71V19.5706ZM9.3324 9.737C8.4728 9.737 7.917 9.128 7.917 8.3748C7.917 7.6062 8.4896 7.0154 9.3674 7.0154C10.2452 7.0154 10.7828 7.6062 10.7996 8.3748C10.7996 9.128 10.2452 9.737 9.3324 9.737ZM20.65 19.5706H17.9284V14.7168C17.9284 13.587 17.5336 12.8198 16.5494 12.8198C15.7976 12.8198 15.351 13.3392 15.1536 13.839C15.0808 14.0168 15.0626 14.2688 15.0626 14.5194V19.5692H12.3396V13.6052C12.3396 12.5118 12.3046 11.5976 12.2682 10.8108H14.6328L14.7574 12.0274H14.812C15.1704 11.4562 16.0482 10.6134 17.5168 10.6134C19.3074 10.6134 20.65 11.8132 20.65 14.392V19.5706V19.5706Z" fill="#0077B5"/>
</svg>
