<svg width="601" height="87" viewBox="0 0 601 87" fill="none" xmlns="http://www.w3.org/2000/svg">
<path d="M166.562 84.2375L158.412 49.1375L150.562 84.2375L132.912 84.2625L118.425 17.975H136.55L142.925 51.325L150 17.975H166.875L174.362 51.3L181.387 17.975H199.25L184.212 84.2375H166.562Z" fill="#231F20"/>
<path d="M310.4 84.2625H329.138V20.05H310.4V84.2625Z" fill="#231F20"/>
<path d="M490.375 84.325H509.112V20.1H490.375C490.375 20.0875 490.375 84.325 490.375 84.325Z" fill="#231F20"/>
<path d="M371.85 40.775C371.85 32.1125 367.938 30.3625 361.625 30.3625C354.488 30.3625 352.1 33.625 351.725 41.4125C351.55 44.6625 351.675 45.0875 351.675 45.0875L371.888 45.125L371.85 40.775ZM351.612 57.075C351.612 63.6375 352.688 67.675 356.125 69.325C358.05 70.15 361.562 70.7375 364.862 70.7375C371.325 70.7375 379.75 69.775 387.125 66.8625V81.825C377.85 84.8375 370.013 85.7125 362.725 85.7125C352.413 85.7125 344.988 83.525 340.438 79.2875C334.662 73.9625 332.737 65.0875 332.737 51.5625C332.737 39.5375 333.975 31.4875 338.237 25.475C342.362 19.6 349.925 16.4625 362.038 16.4625C373.45 16.4625 380.2 19.3375 384.188 24.925C388.45 31.075 389 39.675 389 48.4125L388.925 57.15L352.475 57.0625L351.612 57.075Z" fill="#231F20"/>
<path d="M288.95 85.9125C266.388 85.9125 260.263 77.15 260.263 51.2625C260.263 24.0125 266.95 16.475 290.2 16.475C297.95 16.575 304.875 18.85 306.438 19.7125V35.7875C302.425 34.0125 297.063 32.0625 290.475 31.95C283.925 31.95 280.462 33.6375 279.775 38.575C279.075 42.9625 278.938 48.85 278.938 51.3125C278.938 55.2875 279.212 59.125 279.775 62.8125C280.612 67.7375 284.075 70.3 290.612 70.3C295.212 70.3 300.775 69.75 306.487 67.975L306.462 83.825C300.15 85.65 294.238 85.9125 288.95 85.9125Z" fill="#231F20"/>
<path d="M310.4 10.75V16.4125H329.138V4.56248C319.925 4.23748 312.175 9.44998 310.4 10.75Z" fill="#231F20"/>
<path d="M490.375 10.8875V16.5375H509.112V4.63748C499.8 4.32498 492 9.68748 490.375 10.8875Z" fill="#231F20"/>
<path d="M429.888 17.325C422.163 17.325 415.95 20.75 411.675 23.7625L409.85 18.325C401.563 18.4 394.65 22.9 392.638 24.3625V84.2875H411.212L411.163 39.8C413.65 38.1625 419.913 35.5375 423.225 35.5375C428.613 35.5375 429.962 40.0875 429.962 44.3375L429.938 84.3L447.7 84.2875V35.675C447.688 28.275 443.138 17.325 429.888 17.325Z" fill="#231F20"/>
<path d="M102.262 41.125C102.262 32.4375 98.35 30.675 92.0375 30.675C84.9 30.675 82.5125 33.95 82.1375 41.75C81.9625 45.0125 82.0875 45.4375 82.0875 45.4375L102.3 45.475C102.3 45.475 102.262 41.125 102.262 41.125ZM82.0125 57.4625C82.0125 64.0375 83.0875 68.1 86.525 69.7375C88.45 70.5625 91.9625 71.15 95.2625 71.15C101.725 71.15 110.15 70.1875 117.525 67.2625V82.2625C108.25 85.2875 100.413 86.1625 93.1125 86.1625C82.8 86.1625 75.3625 83.975 70.825 79.725C65.05 74.3875 63.125 65.4875 63.125 51.925C63.125 39.875 64.3625 31.8 68.625 25.775C72.75 19.8875 80.3125 16.7375 92.425 16.7375C103.838 16.7375 110.587 19.6125 114.575 25.225C118.837 31.3875 119.387 40.0125 119.387 48.775L119.312 57.5375L82.8625 57.45L82.0125 57.4625Z" fill="#231F20"/>
<path d="M227.325 67.7875C236.013 67.475 236.862 62.7125 236.837 60.675C236.75 54.9 231.1 52.9875 220.837 49.5125L220.188 49.2875C210.775 46 201.875 42.8875 201.637 28.225C201.475 18.3625 203.475 11.6625 207.925 7.13748C212.363 2.63748 219.413 0.349976 228.888 0.349976C235.45 0.349976 247.637 1.74998 253.525 4.72498C253.525 5.59998 253.525 21.15 253.513 23.3875C248.625 20.975 239.013 17.8 230.113 17.9875C223.975 18.125 221.137 20.35 221.212 25.0125C221.287 29.375 225.125 30.7125 230.95 32.725C234.2 33.85 238.25 35.25 242.813 37.55C251.175 41.925 256.687 45.7625 256.9 58.8125C257.037 67.425 254.887 74.05 250.525 78.4875C245.737 83.35 238.062 85.825 227.712 85.825C216.287 85.825 206.688 82.8375 201.688 80.9125C201.688 79.9375 201.688 64.8875 201.688 62.6125C208.45 66.3375 217.263 68.1375 227.325 67.7875Z" fill="#231F20"/>
<path d="M536.037 85.825C526.437 85.825 518.063 83.6375 512.75 81.725V65.675C518.688 68.9875 526.938 70.525 536.025 70.225C541.438 70.05 543.663 67.9375 543.613 65.2125C543.538 60.975 538.512 59.6125 529.287 56.75C520.762 54.025 512.925 51.425 512.713 39.4125C512.525 28.4875 515.65 16.6125 537.075 16.6125C543.338 16.6125 554.225 17.8625 559.163 20.3375L559.15 36.6C555.525 34.75 546.15 31.7375 537.863 31.9C532.438 32.0125 530.763 33.8375 530.813 36.8375C530.9 41.6125 538.537 41.2 549.475 46.2625C557.188 49.95 561.9 53.2 562.088 63.7125C562.338 78.5875 553.562 85.825 536.037 85.825Z" fill="#231F20"/>
<path d="M477.425 69.7625C469.562 69.975 470.6 63.3625 470.575 58.725C470.55 54.0875 470.6 34.425 470.6 34.425H486.413L486.425 20.075L470.562 20.1L470.525 1.56248C460.562 1.34998 452.388 7.56248 451.788 8.02498V18.5375L451.775 20.0625C451.775 20.0625 450.262 20.9125 449.487 21.4625C448.712 22.0125 448.312 22.325 448.312 22.325L451.85 34.525L451.8 65.5375C451.8 83.75 460.113 85.7875 469.975 85.7875C476.025 85.7875 482.088 84.7 486.45 83.475V67.9875C483.763 69.075 480.662 69.7625 477.425 69.7625Z" fill="#231F20"/>
<path d="M591.35 70C583.487 70.2125 584.525 63.6 584.5 58.9625C584.475 54.325 584.525 34.6625 584.525 34.6625H600.338L600.35 20.3125L584.487 20.3375L584.45 1.79999C574.488 1.58749 566.313 7.79998 565.713 8.26248V18.775L565.7 20.3C565.7 20.3 564.187 21.15 563.412 21.7C562.637 22.25 562.237 22.5625 562.237 22.5625L565.775 34.7625L565.725 65.775C565.725 83.9875 574.038 86.025 583.9 86.025C589.95 86.025 596.012 84.9375 600.375 83.7125V68.225C597.7 69.3125 594.6 70 591.35 70Z" fill="#231F20"/>
<path d="M40.775 1.66248L40.75 45.35L18.925 1.83748C9.39999 1.66248 1.51249 7.36248 0.362488 8.22498V84.2625H19.3L19.3125 42.75L41.025 84.2625H41.2375H59.4875V1.64998L40.775 1.66248Z" fill="#231F20"/>
</svg>
