<svg width="28" height="28" viewBox="0 0 28 28" fill="none" xmlns="http://www.w3.org/2000/svg">
<g clip-path="url(#clip0)">
<path d="M0 14.0002C0 19.733 3.44728 24.6579 8.3802 26.8232C8.34083 25.8456 8.3732 24.672 8.62389 23.6084C8.89306 22.4719 10.4253 15.9797 10.4253 15.9797C10.4253 15.9797 9.97806 15.0858 9.97806 13.7646C9.97806 11.6899 11.1805 10.1404 12.6781 10.1404C13.9515 10.1404 14.5668 11.0969 14.5668 12.2422C14.5668 13.5224 13.7503 15.4372 13.3304 17.2107C12.9796 18.6958 14.075 19.9071 15.5401 19.9071C18.1927 19.9071 19.9792 16.5002 19.9792 12.4636C19.9792 9.3952 17.9126 7.09855 14.1537 7.09855C9.90686 7.09855 7.26119 10.2656 7.26119 13.8032C7.26119 15.023 7.62081 15.8831 8.18409 16.5492C8.44309 16.8551 8.47908 16.9782 8.38534 17.3295C8.31819 17.5871 8.16397 18.2072 8.10009 18.453C8.00691 18.8076 7.71958 18.9343 7.39911 18.8034C5.44305 18.0049 4.53206 15.8628 4.53206 13.4548C4.53206 9.47778 7.88616 4.70903 14.5379 4.70903C19.8831 4.70903 23.4011 8.57697 23.4011 12.729C23.4011 18.221 20.3478 22.324 15.847 22.324C14.3356 22.324 12.9138 21.507 12.4267 20.5789C12.4267 20.5789 11.614 23.8046 11.4418 24.4275C11.145 25.5069 10.564 26.5858 10.0327 27.4267C11.3209 27.8075 12.6572 28.0009 14.0005 28.0008C21.7316 28.0008 28.0001 21.7326 28.0001 14.0002C28.0001 6.26817 21.7316 0 14.0005 0C6.26872 0 0 6.26817 0 14.0002Z" fill="#CB1F27"/>
</g>
<defs>
<clipPath id="clip0">
<rect width="28" height="28" fill="white"/>
</clipPath>
</defs>
</svg>
