<svg width="28" height="28" viewBox="0 0 28 28" fill="none" xmlns="http://www.w3.org/2000/svg">
<circle cx="14" cy="14" r="14" fill="#999999"/>
<path d="M21.15 9.72222H7.85C6.273 9.72222 5 10.9878 5 12.5556V18.2222H8.8V22H20.2V18.2222H24V12.5556C24 10.9878 22.727 9.72222 21.15 9.72222ZM18.3 20.1111H10.7V15.3889H18.3V20.1111ZM21.15 13.5C20.6275 13.5 20.2 13.075 20.2 12.5556C20.2 12.0361 20.6275 11.6111 21.15 11.6111C21.6725 11.6111 22.1 12.0361 22.1 12.5556C22.1 13.075 21.6725 13.5 21.15 13.5ZM20.2 5H8.8V8.77778H20.2V5Z" fill="white"/>
</svg>
