<svg width="28" height="28" viewBox="0 0 28 28" fill="none" xmlns="http://www.w3.org/2000/svg">
<path d="M14 28C21.732 28 28 21.732 28 14C28 6.26801 21.732 0 14 0C6.26801 0 0 6.26801 0 14C0 21.732 6.26801 28 14 28Z" fill="#FF4500"/>
<path d="M23.3133 14.1334C23.3133 12.9986 22.3955 12.0972 21.277 12.0972C20.7487 12.0965 20.2405 12.2998 19.8584 12.6648C18.4565 11.6632 16.5369 11.0124 14.4006 10.929L15.3351 6.55605L18.3728 7.20683C18.4064 7.97464 19.0404 8.59228 19.8251 8.59228C20.6261 8.59228 21.277 7.9415 21.277 7.14C21.277 6.33894 20.6263 5.68805 19.8251 5.68805C19.2576 5.68805 18.7567 6.02186 18.5231 6.50596L15.1351 5.78824C15.0349 5.77139 14.9347 5.78824 14.8679 5.83833C14.7844 5.88842 14.7344 5.97177 14.7179 6.07196L13.6828 10.9455C11.5131 11.0124 9.56024 11.6632 8.14164 12.6815C7.75956 12.3166 7.2513 12.1133 6.72294 12.114C5.58796 12.114 4.68671 13.0318 4.68671 14.1503C4.68671 14.9847 5.18732 15.6856 5.88852 16.003C5.85447 16.2071 5.83771 16.4136 5.83843 16.6205C5.83843 19.758 9.49374 22.312 14.0001 22.312C18.5066 22.312 22.1619 19.7749 22.1619 16.6205C22.1618 16.4137 22.145 16.2072 22.1118 16.003C22.8127 15.6856 23.3133 14.9679 23.3133 14.1334V14.1334ZM9.32661 15.5854C9.32661 14.7843 9.97739 14.1334 10.7789 14.1334C11.58 14.1334 12.2308 14.7842 12.2308 15.5854C12.2308 16.3866 11.5801 17.0377 10.7789 17.0377C9.9775 17.0541 9.32661 16.3866 9.32661 15.5854ZM17.455 19.441C16.4536 20.4425 14.5508 20.5093 14.0001 20.5093C13.4327 20.5093 11.53 20.4257 10.5449 19.441C10.395 19.2908 10.395 19.0571 10.5449 18.9069C10.6952 18.7569 10.9288 18.7569 11.0791 18.9069C11.7135 19.5413 13.0488 19.758 14.0001 19.758C14.9516 19.758 16.3033 19.5412 16.9208 18.9069C17.0711 18.7569 17.3048 18.7569 17.455 18.9069C17.5885 19.0571 17.5885 19.2908 17.455 19.441ZM17.1878 17.0542C16.3867 17.0542 15.7359 16.4034 15.7359 15.6022C15.7359 14.8011 16.3867 14.1503 17.1878 14.1503C17.9892 14.1503 18.64 14.8011 18.64 15.6022C18.64 16.3865 17.9892 17.0542 17.1878 17.0542Z" fill="white"/>
</svg>
