<svg width="35" height="35" viewBox="0 0 35 35" fill="none" xmlns="http://www.w3.org/2000/svg">
<path fill-rule="evenodd" clip-rule="evenodd" d="M2.1875 17.5C2.1875 21.5611 3.80078 25.4559 6.67243 28.3276C9.54408 31.1992 13.4389 32.8125 17.5 32.8125C21.5611 32.8125 25.4559 31.1992 28.3276 28.3276C31.1992 25.4559 32.8125 21.5611 32.8125 17.5C32.8125 13.4389 31.1992 9.54408 28.3276 6.67243C25.4559 3.80078 21.5611 2.1875 17.5 2.1875C13.4389 2.1875 9.54408 3.80078 6.67243 6.67243C3.80078 9.54408 2.1875 13.4389 2.1875 17.5V17.5ZM35 17.5C35 22.1413 33.1563 26.5925 29.8744 29.8744C26.5925 33.1563 22.1413 35 17.5 35C12.8587 35 8.40752 33.1563 5.12563 29.8744C1.84375 26.5925 0 22.1413 0 17.5C0 12.8587 1.84375 8.40752 5.12563 5.12563C8.40752 1.84375 12.8587 0 17.5 0C22.1413 0 26.5925 1.84375 29.8744 5.12563C33.1563 8.40752 35 12.8587 35 17.5V17.5ZM18.5938 25.1562C18.5938 25.4463 18.4785 25.7245 18.2734 25.9296C18.0683 26.1348 17.7901 26.25 17.5 26.25C17.2099 26.25 16.9317 26.1348 16.7266 25.9296C16.5215 25.7245 16.4062 25.4463 16.4062 25.1562V12.4841L11.7119 17.1806C11.5065 17.386 11.2279 17.5014 10.9375 17.5014C10.6471 17.5014 10.3685 17.386 10.1631 17.1806C9.95775 16.9752 9.84237 16.6967 9.84237 16.4062C9.84237 16.1158 9.95775 15.8373 10.1631 15.6319L16.7256 9.06937C16.8272 8.96752 16.9479 8.8867 17.0808 8.83157C17.2137 8.77643 17.3561 8.74804 17.5 8.74804C17.6439 8.74804 17.7863 8.77643 17.9192 8.83157C18.0521 8.8867 18.1728 8.96752 18.2744 9.06937L24.8369 15.6319C25.0423 15.8373 25.1576 16.1158 25.1576 16.4062C25.1576 16.6967 25.0423 16.9752 24.8369 17.1806C24.6315 17.386 24.3529 17.5014 24.0625 17.5014C23.7721 17.5014 23.4935 17.386 23.2881 17.1806L18.5938 12.4841V25.1562Z" fill="black"/>
</svg>
