<svg width="28" height="28" viewBox="0 0 28 28" fill="none" xmlns="http://www.w3.org/2000/svg">
<circle cx="14" cy="14" r="14" fill="#4DC247"/>
<path d="M9.55128 20.9857L9.89453 21.1554C11.3249 22.0037 12.9268 22.3996 14.5288 22.3996C19.5635 22.3996 23.6828 18.3274 23.6828 13.3503C23.6828 10.9748 22.7102 8.6559 20.9938 6.95912C19.2774 5.26233 16.9889 4.30087 14.5288 4.30087C9.49411 4.30087 5.37474 8.37309 5.43199 13.4068C5.43199 15.1035 5.9469 16.7438 6.80506 18.1577L7.03389 18.4971L6.11856 21.8341L9.55128 20.9857Z" fill="#4DC247"/>
<path d="M21.5 6.11068C19.5547 4.13116 17.3327 3.5 14.5865 3.5C8.75084 3.5 4.44283 7.69435 4.5 13.4068C4.5 15.2166 5.14176 16.9164 6 18.5L5 23L6.51953 22.5127L9.49459 22.0038C11.0393 22.8522 12.87 23.2197 14.5865 23.2197C20.3649 23.2197 24.5 19.1191 24.5 13.4068C24.5 10.6353 23.4451 8.03368 21.5 6.11068ZM14.5865 22.0038C13.0417 22.0038 11.497 21.6079 10.1811 20.8161L9.83784 20.6464L6.51953 21.4948L7.37769 18.271L7.14886 17.9316C4.63147 13.9159 5.83296 8.5993 9.95225 6.11068C14.0715 3.62214 19.3923 4.80989 21.9097 8.88211C24.427 12.9543 23.2255 18.2143 19.1063 20.7029C17.7903 21.5513 16.1884 22.0038 14.5865 22.0038ZM19.6212 15.7258L18.9918 15.443C18.9918 15.443 18.0765 15.0471 17.5043 14.7643C17.4471 14.7643 17.3899 14.7077 17.3327 14.7077C17.161 14.7077 17.0466 14.7643 16.9322 14.8209C16.9322 14.8209 16.875 14.8774 16.074 15.7824C16.0168 15.8955 15.9024 15.9521 15.7879 15.9521H15.7307C15.6735 15.9521 15.5591 15.8955 15.5019 15.8389L15.2158 15.7258C14.5865 15.443 14.0144 15.1036 13.5566 14.6512C13.4422 14.5381 13.2706 14.425 13.1561 14.3119C12.7556 13.9159 12.3551 13.4634 12.0691 12.9544L12.0119 12.8413C11.9547 12.7847 11.9547 12.7282 11.8975 12.6151C11.8975 12.502 11.8975 12.3889 11.9547 12.3323C11.9547 12.3323 12.1836 12.0495 12.3551 11.8798C12.4696 11.7666 12.5268 11.597 12.6412 11.4839C12.7556 11.3142 12.8129 11.088 12.7556 10.9183C12.6985 10.6355 12.0119 9.1084 11.8403 8.76908C11.7258 8.59938 11.6115 8.54286 11.4398 8.48627H10.8105C10.696 8.48627 10.5817 8.54286 10.4672 8.54286L10.4099 8.59938C10.2955 8.65597 10.1811 8.76908 10.0667 8.82559C9.95225 8.93878 9.895 9.05181 9.78059 9.165C9.38009 9.67403 9.15126 10.2962 9.15126 10.9183C9.15126 11.3707 9.26567 11.8232 9.43734 12.2192L9.49459 12.3889C10.0095 13.4634 10.696 14.425 11.6115 15.2733L11.8403 15.4995C12.0119 15.6692 12.1836 15.7823 12.298 15.952C13.4995 16.9701 14.8725 17.7053 16.4173 18.1013C16.5889 18.1578 16.8178 18.1578 16.9894 18.2144H17.5615C17.8476 18.2144 18.1908 18.1013 18.4198 17.9882C18.5913 17.8751 18.7057 17.8751 18.8202 17.7619L18.9347 17.6488C19.0491 17.5356 19.1635 17.4791 19.2779 17.366C19.3923 17.2529 19.5067 17.1398 19.564 17.0266C19.6784 16.8004 19.7356 16.5176 19.7928 16.2349V15.8389C19.7928 15.8389 19.7356 15.7823 19.6212 15.7258Z" fill="white"/>
</svg>
